<svg width="54" height="60" viewBox="0 0 54 60" fill="none" xmlns="http://www.w3.org/2000/svg">
<path d="M42.3046 1.30709C17.7212 -4.5652 5.75498 10.4356 1.55427 24.6615C0.122951 29.5087 1.24169 34.6456 3.56611 39.1335C9.5156 50.6206 24.2281 59.4445 36.191 54.5214C41.2751 52.4291 43.1923 48.7906 36.1637 41.3663C16.7153 20.823 78.6506 9.98911 42.3046 1.30709Z" fill="#BAC695" fill-opacity="0.24"/>
<path fill-rule="evenodd" clip-rule="evenodd" d="M33.1279 18.6892L33.129 19.5157C36.1661 19.7537 38.1723 21.8232 38.1756 24.9969L38.1875 34.2866C38.1919 37.7468 36.018 39.8758 32.5336 39.8813L24.0221 39.8924C20.5594 39.8968 18.3584 37.7171 18.354 34.2469L18.342 25.0664C18.3377 21.8717 20.2731 19.8077 23.3102 19.5289L23.3091 18.7024C23.308 18.2176 23.6673 17.8528 24.1462 17.8528C24.6252 17.8517 24.9844 18.2154 24.9855 18.7002L24.9866 19.4716L31.4526 19.4628L31.4515 18.6914C31.4505 18.2066 31.8097 17.8429 32.2886 17.8418C32.7567 17.8407 33.1268 18.2043 33.1279 18.6892ZM20.0194 25.4068L36.5002 25.3848V24.9991C36.4534 22.6299 35.2647 21.3868 33.1311 21.2017L33.1322 22.0502C33.1322 22.5241 32.7632 22.8998 32.2951 22.8998C31.8161 22.901 31.4558 22.5263 31.4558 22.0524L31.4547 21.1598L24.9887 21.1686L24.9898 22.0601C24.9898 22.5351 24.6316 22.9098 24.1527 22.9098C23.6737 22.9109 23.3134 22.5373 23.3134 22.0623L23.3123 21.2138C21.1896 21.4265 20.0151 22.6739 20.0183 25.0641L20.0194 25.4068ZM31.8367 30.4153V30.4274C31.8476 30.9344 32.2613 31.3189 32.7631 31.3079C33.2529 31.2958 33.6437 30.876 33.6328 30.369C33.61 29.8842 33.217 29.4886 32.7283 29.4897C32.2275 29.5007 31.8356 29.9084 31.8367 30.4153ZM32.7361 35.3632C32.2354 35.3522 31.8315 34.9346 31.8304 34.4277C31.8195 33.9207 32.2212 33.5009 32.7219 33.4888H32.7328C33.2445 33.4888 33.6592 33.9064 33.6592 34.4243C33.6603 34.9423 33.2466 35.3621 32.7361 35.3632ZM27.352 30.433C27.3738 30.9399 27.7885 31.3355 28.2893 31.3134C28.7791 31.2903 29.1699 30.8716 29.1481 30.3646C29.1362 29.8688 28.7334 29.4831 28.2435 29.4842C27.7428 29.5062 27.3509 29.9261 27.352 30.433ZM28.2936 35.3136C27.7929 35.3356 27.3792 34.94 27.3564 34.4331C27.3564 33.9262 27.7472 33.5075 28.2479 33.4843C28.7377 33.4832 29.1416 33.8689 29.1525 34.3637C29.1753 34.8717 28.7835 35.2905 28.2936 35.3136ZM22.8669 30.4715C22.8887 30.9784 23.3034 31.3751 23.8041 31.352C24.294 31.3299 24.6848 30.9101 24.6619 30.4032C24.651 29.9073 24.2483 29.5216 23.7573 29.5227C23.2566 29.5447 22.8658 29.9646 22.8669 30.4715ZM23.8089 35.3191C23.3082 35.3423 22.8945 34.9456 22.8716 34.4387C22.8706 33.9318 23.2624 33.5119 23.7632 33.4899C24.253 33.4888 24.6569 33.8745 24.6678 34.3703C24.6906 34.8773 24.2998 35.2971 23.8089 35.3191Z" fill="#BAC695"/>
</svg>
