<svg width="54" height="59" viewBox="0 0 54 59" fill="none" xmlns="http://www.w3.org/2000/svg">
<path d="M42.0835 1.30026C17.6285 -4.54134 5.7249 10.3811 1.54615 24.5326C0.122309 29.3545 1.2352 34.4645 3.54747 38.9289C9.46587 50.356 24.1014 59.1338 36.0019 54.2364C41.0594 52.155 42.9665 48.5355 35.9747 41.1501C16.628 20.7142 78.2395 9.9369 42.0835 1.30026Z" fill="#F7A01D" fill-opacity="0.24"/>
<path fill-rule="evenodd" clip-rule="evenodd" d="M33.4019 22.6199C33.4019 24.6904 32.8874 27.3909 32.096 26.9811C31.7723 28.038 31.0929 28.9503 30.1729 29.5631C29.253 30.1759 28.1494 30.4515 27.0493 30.343C25.9493 30.2345 24.9208 29.7486 24.1383 28.9678C23.3559 28.1871 22.8678 27.1596 22.7569 26.0598C21.9714 24.6856 20.9413 21.9319 23.5896 19.7855C23.6375 19.7699 23.6662 19.6407 23.7093 19.4505C23.8732 18.7308 24.2363 17.1311 26.527 17.4368C28.2936 17.6719 33.4019 18.5842 33.4019 22.6205V22.6199ZM31.125 23.9253C31.125 23.9253 30.8546 24.7161 31.1083 25.5973C31.105 26.5369 30.7334 27.4377 30.0733 28.1064C29.4132 28.7751 28.5173 29.1583 27.5778 29.1737C26.6384 29.1891 25.7303 28.8356 25.0486 28.1889C24.3669 27.5423 23.966 26.6542 23.9318 25.7152C24.0186 25.3862 24.0186 24.8292 24.018 24.21C24.0174 23.0931 24.0162 21.7752 24.5277 21.238C28.1105 23.6244 31.125 23.9253 31.125 23.9253Z" fill="#F7A01D"/>
<path d="M20.9383 35.8951C20.9383 35.3306 21.199 34.827 21.6069 34.498C21.7137 34.4118 21.771 34.2742 21.7405 34.1405C21.6497 33.7318 21.5788 33.3189 21.5281 32.9033C21.4532 32.3227 20.8589 31.9305 20.3359 32.1937C18.3141 33.2118 16.7506 34.6927 16.7506 36.2361V38.4845C16.7506 39.0368 17.1983 39.4845 17.7506 39.4845H37.2871C37.8394 39.4845 38.2871 39.0368 38.2871 38.4845V36.2361C38.2871 34.5026 36.3155 32.8483 33.9366 31.8396C33.9293 31.8365 33.9212 31.8419 33.9212 31.8498C33.9319 32.2147 33.9116 32.6335 33.8721 33.0361C33.8496 33.2708 33.8201 33.505 33.7855 33.7258C33.755 33.9202 33.9027 34.1004 34.0995 34.1004C34.2105 34.1004 34.3194 34.1314 34.4138 34.1899C34.5083 34.2483 34.5846 34.3319 34.6343 34.4312L35.2325 35.6277C35.2744 35.7108 35.2959 35.8024 35.2959 35.8951V37.0916C35.2959 37.2502 35.2329 37.4024 35.1207 37.5146C35.0085 37.6268 34.8563 37.6898 34.6977 37.6898H34.0995C33.7691 37.6898 33.5012 37.422 33.5012 37.0916V36.7924C33.5012 36.6272 33.6351 36.4933 33.8003 36.4933C33.9655 36.4933 34.0995 36.3594 34.0995 36.1942V36.1236C34.0995 36.0662 34.0861 36.0095 34.0604 35.9582L33.9973 35.8319C33.8333 35.504 33.4982 35.2969 33.1315 35.2969H32.6744C32.3078 35.2969 31.9726 35.504 31.8087 35.8319L31.7455 35.9582C31.7199 36.0095 31.7065 36.0662 31.7065 36.1236V36.1942C31.7065 36.3594 31.8404 36.4933 32.0056 36.4933C32.1708 36.4933 32.3047 36.6272 32.3047 36.7924V37.0916C32.3047 37.422 32.0369 37.6898 31.7065 37.6898H31.1083C30.9496 37.6898 30.7974 37.6268 30.6853 37.5146C30.5731 37.4024 30.51 37.2502 30.51 37.0916V35.8951C30.51 35.8024 30.5316 35.7108 30.5735 35.6277L31.1717 34.4312C31.2213 34.3319 31.2977 34.2483 31.3921 34.1899C31.4866 34.1314 31.5954 34.1004 31.7065 34.1004H32.3176C32.4209 34.1004 32.5115 34.0304 32.5327 33.9293C32.5925 33.6475 32.6457 33.2904 32.6816 32.9213C32.7175 32.5516 32.7343 32.1848 32.7253 31.8833C32.7231 31.7584 32.7133 31.6338 32.696 31.51C32.6828 31.4251 32.6697 31.3862 32.6673 31.3778C32.6667 31.3761 32.6662 31.3755 32.6671 31.3764C32.6672 31.3765 32.6674 31.3766 32.6676 31.3765C32.668 31.3764 32.668 31.3757 32.6676 31.3755C32.3506 31.2771 32.03 31.1909 31.7065 31.117C31.5769 31.0874 31.4455 31.1473 31.3269 31.2457C31.0409 31.4834 30.7257 31.7212 30.3539 31.7212H24.0424C23.9729 31.7212 23.909 31.6828 23.878 31.6207C23.7512 31.3682 23.595 31.0566 23.3312 31.117C23.2023 31.1461 23.0734 31.1777 22.9445 31.2114C22.7613 31.2592 22.6288 31.4205 22.6307 31.6099C22.6331 31.9408 22.6648 32.3458 22.7156 32.755C22.7665 33.1629 22.8353 33.5602 22.9071 33.8737C22.9402 34.0208 23.0653 34.1246 23.2107 34.1648C23.461 34.2339 23.6943 34.3568 23.8938 34.526C24.1569 34.7491 24.3501 35.0433 24.4503 35.3734C24.5505 35.7035 24.5534 36.0555 24.4588 36.3872C24.3641 36.7189 24.1759 37.0163 23.9166 37.2438C23.6573 37.4713 23.3379 37.6193 22.9967 37.67C22.6554 37.7207 22.3068 37.6719 21.9926 37.5296C21.6784 37.3873 21.4118 37.1575 21.2248 36.8676C21.0378 36.5777 20.9383 36.2401 20.9383 35.8951Z" fill="#F7A01D"/>
<path d="M23.3312 35.8943C23.3312 36.2377 23.0548 36.5015 22.733 36.5015C22.4111 36.5015 22.1347 36.2383 22.1347 35.8943C22.1347 35.5509 22.4111 35.2871 22.733 35.2871C23.0548 35.2871 23.3312 35.5503 23.3312 35.8943Z" fill="#F7A01D"/>
</svg>
