<svg width="45" height="50" fill="none" xmlns="http://www.w3.org/2000/svg"><path d="M35.173 1.087c-20.44-4.883-30.388 7.59-33.88 19.417-1.19 4.03-.26 8.301 1.672 12.032C7.91 42.087 20.144 49.423 30.09 45.33c4.227-1.74 5.821-4.764-.023-10.937-16.17-17.08 35.325-26.088 5.106-33.306Z" fill="#CBA5D9" fill-opacity=".24"/><path d="M13.5 23.461c0 .352.274.686.737.686.24 0 .437-.129.617-.274l8.58-7.2c.188-.171.42-.171.608 0l8.579 7.2c.171.145.368.274.608.274.403 0 .729-.249.729-.66a.7.7 0 0 0-.266-.583l-2.4-2.023v-3.428c0-.377-.24-.617-.617-.617h-.917c-.368 0-.617.24-.617.617v1.62l-4.37-3.668c-.635-.54-1.424-.54-2.066 0l-8.93 7.5a.716.716 0 0 0-.275.556Zm2.674 7.645c0 1.191.72 1.894 1.928 1.894h11.27c1.209 0 1.92-.703 1.92-1.894v-6.788l-7.045-5.905c-.325-.274-.711-.265-1.028 0l-7.045 5.905v6.788Zm9.762.514h-4.423v-5.665c0-.394.266-.651.66-.651h3.111c.395 0 .652.257.652.651v5.665Z" fill="#CBA5D9"/></svg>