<svg width="45" height="50" fill="none" xmlns="http://www.w3.org/2000/svg"><path d="M35.173 1.087c-20.44-4.883-30.388 7.59-33.88 19.417-1.19 4.03-.26 8.301 1.672 12.032C7.91 42.087 20.144 49.423 30.09 45.33c4.227-1.74 5.821-4.764-.023-10.937-16.17-17.08 35.325-26.088 5.106-33.306Z" fill="#6CB28D" fill-opacity=".24"/><path d="m30.555 29.278-4.32-8.647v-4.345h.643V15h-6.429v1.286h.643v4.345l-4.32 8.647A2.571 2.571 0 0 0 19.067 33h9.193a2.571 2.571 0 0 0 2.295-3.722Zm-8.248-8.203a.643.643 0 0 0 .07-.29v-4.5h2.572v4.5c0 .101.025.2.07.29l2.746 5.496h-8.203l2.745-5.496Zm7.071 10.029a1.286 1.286 0 0 1-1.093.61h-9.218a1.285 1.285 0 0 1-1.144-1.858l.996-1.999h9.489l.996 2a1.287 1.287 0 0 1-.051 1.247h.025Z" fill="#6CB28D" stroke="#6CB28D" stroke-width=".4"/><path d="M29.377 27.578H18.662l-1.428 2.143-.715 1.429 2.143 1.428h10l1.429-1.428-.714-3.572Z" fill="#6CB28D"/></svg>