<svg width="49" height="48" viewBox="0 0 49 48" fill="none" xmlns="http://www.w3.org/2000/svg">
<ellipse cx="24.25" cy="24" rx="24.25" ry="24" fill="#F1EFFD"/>
<path d="M22.9778 24.8697C23.0441 25.629 23.0773 26.0252 22.4798 26.6525C21.849 27.3128 20.2223 28.5673 18.5956 29.4917C17.8985 29.8879 16.9689 30.3831 16.2718 30.6142C15.7406 30.8123 15.3091 30.8784 15.0767 30.5152C14.9439 30.2841 15.0103 30.053 15.0767 29.8549C15.641 28.3362 17.2677 25.4309 18.3633 23.5821C18.4628 23.384 18.5956 23.186 18.6952 22.9879C20.3551 20.1486 22.5462 16.6821 22.9778 16.1208C23.0441 16.0548 23.1437 15.9557 23.2433 16.0218C23.3429 16.0548 23.3429 16.1868 23.3097 16.2529C23.3097 16.2529 23.2765 16.3519 23.2765 16.418C22.5794 19.2572 22.6458 22.0635 22.9778 24.8697Z" fill="#7063EA"/>
<path d="M25.3979 25.7292C24.7007 25.3991 24.3356 25.267 24.07 24.4086C23.8044 23.5172 23.5388 21.5363 23.5388 19.6215C23.5388 18.8291 23.572 17.7726 23.7048 17.0463C23.8044 16.485 23.9704 16.0889 24.402 16.0889C24.7007 16.0889 24.8335 16.2539 24.9663 16.419C26.0287 17.6736 27.6885 20.5459 28.7841 22.3947C28.8837 22.5928 29.0165 22.7909 29.1161 22.989C30.7759 25.8282 32.7014 29.4599 32.967 30.1202C33.0002 30.2192 33.0334 30.3513 32.9338 30.4173C32.8342 30.4503 32.7678 30.4173 32.7014 30.3843C32.7014 30.3843 32.6018 30.3183 32.6018 30.2853C30.4772 28.2053 27.9873 26.8517 25.3979 25.7292Z" fill="#7063EA"/>
<path d="M23.4133 27.3779C24.0441 26.9487 24.3428 26.7176 25.2392 26.9157C26.1355 27.1468 28.0278 27.9062 29.6545 28.8306C30.3517 29.2267 31.248 29.788 31.8124 30.2832C32.2439 30.6464 32.5427 30.9765 32.3103 31.3727C32.1775 31.6038 31.9452 31.6698 31.7128 31.7029C30.0861 31.967 26.7663 32 24.5752 32C24.3428 32 24.1105 32 23.9113 32C20.6247 32 16.5082 31.8349 15.811 31.7359C15.7114 31.7359 15.5786 31.6698 15.5786 31.5378C15.5786 31.4387 15.6782 31.3727 15.7446 31.3727C15.7446 31.3727 15.8442 31.3397 15.9106 31.3397C18.7324 30.5473 21.1559 29.0617 23.4133 27.3779Z" fill="#7063EA"/>
</svg>
