<svg width="45" height="50" fill="none" xmlns="http://www.w3.org/2000/svg"><path d="M35.173 1.087c-20.44-4.883-30.388 7.59-33.88 19.417-1.19 4.03-.26 8.301 1.672 12.032C7.91 42.087 20.144 49.423 30.09 45.33c4.227-1.74 5.821-4.764-.023-10.937-16.17-17.08 35.325-26.088 5.106-33.306Z" fill="#FFC500" fill-opacity=".24"/><path d="M13.981 32.313c.486 0 .896-.156 1.394-.412l13.768-7.12c.995-.523 1.356-.879 1.356-1.468 0-.59-.36-.946-1.356-1.458l-13.768-7.13c-.498-.257-.908-.412-1.394-.412-.896 0-1.481.611-1.481 1.568v14.863c0 .957.585 1.569 1.481 1.569Z" fill="#FFC500"/></svg>